<?xml version="1.0" standalone="no"?>
<!DOCTYPE svg PUBLIC "-//W3C//DTD SVG 20010904//EN"
 "http://www.w3.org/TR/2001/REC-SVG-20010904/DTD/svg10.dtd">
<svg version="1.0" xmlns="http://www.w3.org/2000/svg"
 width="655.000000pt" height="500.000000pt" viewBox="0 0 655.000000 500.000000"
 preserveAspectRatio="xMidYMid meet">

<g transform="translate(0.000000,500.000000) scale(0.100000,-0.100000)"
fill="#000000" stroke="none">
<path d="M2280 4983 c-27 -14 -82 -84 -242 -313 -333 -474 -328 -466 -328
-513 0 -25 9 -56 21 -76 19 -32 19 -34 2 -53 -31 -35 -70 -48 -140 -48 l-68 0
-92 -133 c-84 -119 -93 -136 -93 -177 0 -40 4 -47 35 -67 65 -43 100 -24 184
96 69 98 80 104 144 77 39 -16 87 -70 87 -97 0 -11 -29 -62 -65 -114 -74 -106
-82 -140 -39 -180 35 -33 58 -39 98 -25 27 9 52 37 129 146 l96 136 -21 46
c-23 55 -26 117 -8 162 10 23 17 29 29 24 9 -4 39 -9 67 -12 68 -5 82 8 224
213 61 88 117 160 124 160 7 0 80 -45 162 -99 l149 -99 0 -58 c0 -42 5 -65 20
-86 12 -15 177 -132 367 -258 l347 -230 -102 -105 c-56 -58 -149 -154 -206
-213 l-104 -109 -41 24 c-57 32 -201 32 -294 0 -141 -50 -200 -82 -217 -119
-25 -52 -52 -195 -76 -403 -18 -150 -26 -190 -43 -213 l-21 -29 -3 199 c-1
109 2 261 7 337 10 156 4 188 -37 205 -71 29 -135 42 -222 48 -93 6 -96 5
-127 -21 -52 -44 -307 -583 -368 -778 -17 -54 -17 -58 -1 -83 22 -33 96 -67
138 -63 29 3 36 10 70 80 34 70 40 78 75 87 53 13 213 34 219 28 2 -2 7 -29
10 -58 12 -109 23 -125 106 -143 l27 -6 -16 -43 c-22 -56 -22 -274 1 -416 26
-168 96 -454 185 -763 l20 -68 -157 0 -157 0 -145 -110 -145 -110 -126 0 -127
0 -151 -115 -151 -116 0 -164 0 -165 1955 0 1954 0 3 161 3 162 -40 32 c-22
18 -92 71 -155 119 l-114 86 -125 0 -124 0 -147 110 -147 110 -126 0 c-120 0
-127 1 -140 22 -8 13 -69 117 -137 233 -158 270 -294 494 -441 723 l-118 183
38 62 c25 41 45 63 60 65 29 5 47 35 61 103 8 43 46 117 164 315 196 332 178
305 172 274 -23 -114 -59 -325 -72 -428 -19 -144 -18 -146 72 -214 38 -29 58
-38 89 -38 42 0 338 54 356 66 6 3 20 -3 32 -14 30 -28 89 -52 127 -52 29 0
34 5 67 78 20 42 40 80 46 83 11 7 203 39 235 39 16 0 20 -10 26 -62 11 -94
16 -107 47 -123 42 -22 140 -30 160 -13 15 11 18 66 28 438 l12 425 -25 22
c-32 27 -183 63 -269 63 -98 0 -111 -15 -228 -255 -92 -189 -222 -487 -235
-541 -9 -33 -16 -30 -39 19 -28 60 -52 68 -160 57 -49 -5 -90 -8 -91 -7 -4 4
93 378 125 481 37 118 38 136 9 164 -27 24 -125 72 -150 72 -21 0 -22 4 -8 31
6 10 18 19 28 19 45 0 86 44 202 222 127 192 145 231 136 281 -13 70 -34 86
-489 387 l-445 294 -48 110 c-54 124 -151 298 -206 369 -204 266 -392 327
-643 207 -35 -17 -66 -30 -69 -30 -4 0 -33 18 -65 39 -72 49 -114 58 -161 34z
m215 -113 c72 -50 140 -102 153 -116 46 -53 42 -61 -233 -454 -140 -201 -266
-375 -280 -387 -45 -39 -71 -31 -221 73 -76 52 -147 104 -156 116 -41 47 -32
62 237 448 141 201 267 375 281 388 46 40 77 31 219 -68z m390 -69 c85 -37
206 -174 273 -307 l20 -40 -58 4 c-48 4 -66 0 -96 -17 l-36 -22 -153 101 -153
102 14 35 c18 41 11 81 -17 118 l-20 25 23 9 c67 25 134 23 203 -8z m283 -391
c86 -45 1167 -768 1185 -792 12 -16 20 -42 20 -67 0 -36 -16 -65 -113 -214
-139 -211 -163 -237 -224 -237 -41 0 -81 24 -628 386 -320 212 -593 395 -605
406 -32 30 -47 82 -35 117 19 53 251 390 279 405 38 21 77 20 121 -4z m-924
-1440 c38 -10 75 -25 83 -32 11 -12 12 -47 3 -214 -5 -109 -10 -293 -10 -408
l0 -208 -60 4 c-35 2 -67 11 -75 19 -10 10 -18 45 -22 98 -4 56 -11 85 -20 88
-13 5 -121 -8 -242 -29 l-63 -12 -41 -83 c-23 -46 -45 -83 -50 -83 -4 0 -30
11 -57 25 -35 17 -50 31 -50 45 0 45 209 527 307 708 58 108 69 115 158 106
39 -3 101 -15 139 -24z m2738 0 c39 -11 77 -25 84 -32 11 -11 12 -43 4 -168
-5 -85 -10 -269 -10 -409 l0 -253 -60 4 c-36 3 -67 11 -76 20 -9 9 -18 46 -23
97 -5 45 -11 85 -15 88 -3 3 -59 -1 -123 -11 -201 -29 -182 -19 -228 -113 -21
-46 -44 -83 -50 -83 -5 1 -30 11 -55 23 -33 16 -46 29 -48 47 -8 66 307 754
366 801 24 18 35 20 94 14 38 -4 100 -15 140 -25z m-1999 6 c18 -7 51 -34 74
-60 92 -105 114 -215 59 -295 -36 -52 -120 -116 -220 -167 -47 -24 -76 -45
-76 -55 0 -9 54 -68 119 -132 130 -126 132 -132 49 -143 -31 -4 -54 -2 -76 10
-41 21 -142 106 -215 180 -37 37 -62 55 -68 49 -5 -5 -21 -64 -36 -132 l-27
-122 -36 6 c-19 4 -46 12 -60 19 -24 11 -25 14 -23 107 3 197 58 570 93 626
18 31 121 80 223 108 67 18 179 19 220 1z m855 -6 c11 -12 28 -39 38 -61 23
-52 18 -55 -103 -64 -51 -4 -97 -12 -101 -19 -14 -17 -172 -673 -172 -713 0
-10 -83 7 -117 24 -31 14 -33 19 -33 64 0 62 23 222 62 427 17 90 28 166 24
169 -3 4 -38 2 -78 -5 -45 -7 -78 -7 -89 -1 -18 9 -94 127 -87 134 7 7 185 33
303 44 61 6 124 13 140 15 17 1 67 4 112 5 71 1 85 -2 101 -19z m248 -1 c32
-12 68 -32 80 -44 l22 -22 -39 -129 c-60 -198 -132 -495 -122 -505 5 -5 40 -5
83 1 150 19 170 12 186 -67 l6 -30 -167 -32 -166 -32 -42 24 c-23 14 -53 37
-66 51 l-25 26 13 108 c19 161 82 494 121 635 13 45 32 47 116 16z m-1074
-640 c97 -50 280 -290 570 -749 162 -258 468 -776 468 -793 0 -4 -353 -7 -784
-7 l-784 0 -51 183 c-117 421 -160 630 -168 827 -6 150 7 241 38 268 10 10 28
25 39 35 13 11 20 30 20 55 0 26 7 45 20 57 20 18 20 17 20 -23 0 -33 6 -45
31 -66 17 -14 37 -26 46 -26 8 0 13 -3 11 -7 -59 -117 -63 -128 -63 -213 0
-76 3 -92 33 -152 38 -77 92 -130 171 -166 80 -38 202 -38 282 0 79 36 133 89
171 166 30 60 33 75 33 152 -1 87 -22 159 -62 202 -16 17 -15 20 5 34 12 8 27
24 33 35 9 18 -1 31 -90 116 -56 52 -101 99 -101 103 0 11 66 -7 112 -31z
m-317 -69 c21 -22 37 -41 34 -43 -7 -5 -102 -28 -104 -25 -6 6 18 108 24 108
4 0 24 -18 46 -40z"/>
<path d="M2270 4829 c-86 -34 -147 -133 -137 -221 16 -136 144 -224 275 -189
151 41 205 245 94 357 -55 56 -163 80 -232 53z"/>
<path d="M3856 3766 c-57 -21 -105 -65 -140 -126 -27 -48 -31 -65 -31 -130 0
-64 4 -83 29 -128 93 -168 312 -192 443 -49 120 130 78 344 -83 422 -50 25
-165 30 -218 11z"/>
<path d="M2052 2708 c-104 -197 -134 -260 -125 -269 4 -4 55 -3 113 4 l105 12
0 53 c-2 262 -5 312 -19 312 -8 0 -41 -50 -74 -112z m53 -217 c-10 -9 -125
-17 -125 -9 0 11 41 92 89 178 l36 65 3 -114 c1 -62 0 -116 -3 -120z"/>
<path d="M4817 2758 c-90 -163 -159 -310 -150 -319 6 -6 33 -6 74 0 35 6 81
11 102 11 l37 0 0 185 c0 213 -6 225 -63 123z m32 -205 l1 -62 -32 -5 c-18 -3
-50 -7 -70 -10 l-37 -5 61 122 62 122 7 -50 c4 -27 8 -78 8 -112z"/>
<path d="M2786 2805 c-21 -7 -43 -18 -48 -23 -15 -15 -78 -256 -69 -265 20
-20 167 59 244 132 67 63 89 138 48 161 -28 14 -129 12 -175 -5z m19 -95 c-38
-38 -70 -68 -72 -66 -3 3 27 109 33 115 6 7 99 29 103 25 3 -3 -26 -36 -64
-74z"/>
<path d="M6134 3042 c-48 -23 -159 -124 -199 -182 l-28 -41 -29 53 c-36 66
-71 104 -123 131 -35 19 -56 22 -170 22 -133 -1 -188 -10 -306 -54 -92 -35
-91 -33 -100 -162 -4 -63 -17 -201 -28 -307 -12 -107 -21 -218 -21 -248 0 -50
3 -57 41 -94 44 -42 149 -100 183 -100 86 0 305 94 382 163 l49 45 63 -59
c106 -99 225 -146 351 -137 119 9 219 72 256 161 31 74 -5 124 -173 237 -105
71 -142 110 -142 149 0 40 46 125 86 161 57 49 60 44 33 -60 -5 -19 -9 -54 -9
-77 0 -54 40 -102 111 -133 89 -38 109 -20 155 134 50 167 43 237 -32 306 -99
91 -261 134 -350 92z m198 -42 c116 -45 178 -110 178 -189 0 -95 -59 -281 -89
-281 -28 0 -104 43 -124 71 -18 25 -18 30 -3 104 20 99 21 141 0 149 -49 19
-163 -105 -185 -202 -17 -77 18 -123 178 -230 100 -67 143 -112 143 -147 0
-34 -59 -106 -110 -135 -40 -22 -57 -25 -150 -25 -99 0 -109 2 -173 33 -85 42
-189 137 -167 152 33 22 99 11 180 -30 105 -53 159 -65 205 -46 66 28 47 57
-100 152 -124 80 -163 113 -190 159 -45 77 -43 129 9 250 24 58 151 192 206
218 48 23 128 21 192 -3z m-592 -33 c55 -27 105 -91 125 -161 14 -47 14 -57 0
-96 -22 -63 -57 -103 -130 -152 -36 -23 -65 -47 -65 -53 0 -6 14 -22 31 -34
17 -13 40 -44 51 -69 29 -65 14 -109 -55 -164 -77 -61 -263 -138 -334 -138
-38 0 -131 50 -167 90 -38 42 -38 16 -6 330 11 102 22 231 26 287 l7 102 46
20 c163 69 373 87 471 38z m187 -499 c15 -17 86 -68 156 -114 76 -50 125 -89
121 -95 -12 -20 -86 -2 -171 41 -91 46 -141 57 -196 42 -37 -10 -37 -10 -37
19 0 34 -22 83 -54 118 l-21 23 35 27 c19 14 48 38 64 52 l30 27 22 -56 c13
-30 36 -68 51 -84z"/>
<path d="M5562 2830 c-24 -5 -60 -17 -80 -27 -39 -19 -40 -23 -86 -206 -10
-42 14 -43 97 -3 237 114 285 280 69 236z m101 -36 c11 -12 -22 -61 -60 -92
-48 -37 -152 -96 -159 -89 -3 2 3 37 14 78 l18 73 49 17 c50 17 126 25 138 13z"/>
<path d="M5450 2444 c-14 -2 -41 -9 -61 -14 -34 -9 -36 -12 -47 -75 -7 -36
-15 -79 -19 -96 l-6 -32 40 5 c98 14 233 105 233 158 0 36 -75 64 -140 54z
m84 -40 c25 -9 19 -30 -16 -60 -30 -25 -127 -74 -147 -74 -10 0 8 100 21 117
15 19 108 30 142 17z"/>
<path d="M340 3019 c-25 -13 -77 -55 -116 -93 -157 -157 -189 -321 -88 -453
14 -18 83 -72 155 -119 71 -47 129 -90 129 -96 0 -22 -93 1 -178 43 -92 45
-162 55 -209 30 -57 -30 -36 -76 73 -159 101 -76 157 -96 279 -96 89 -1 106 2
157 27 32 16 71 45 88 65 l30 37 0 -28 c0 -37 36 -69 103 -90 68 -22 94 -21
106 1 7 14 22 103 58 355 3 20 9 37 12 37 4 0 15 -40 24 -88 22 -117 43 -186
65 -211 22 -27 127 -54 153 -41 10 6 52 77 93 158 41 81 81 155 88 165 10 13
5 -25 -13 -115 -36 -174 -36 -201 -2 -227 33 -26 126 -54 152 -46 24 7 39 48
86 230 20 77 66 236 101 352 35 117 64 223 64 236 0 44 -56 76 -200 118 -133
39 -149 28 -254 -167 -38 -71 -85 -158 -105 -194 l-36 -65 -16 110 c-9 61 -20
131 -24 157 -10 72 -41 103 -133 132 -120 37 -172 42 -204 17 -17 -14 -29 -35
-33 -61 l-7 -41 -40 37 c-102 92 -264 129 -358 83z m227 -45 c72 -31 127 -76
144 -115 22 -55 -14 -256 -60 -328 -8 -12 -16 -12 -54 3 -95 36 -112 79 -81
199 8 33 13 71 9 84 -21 87 -205 -96 -205 -204 0 -66 29 -97 190 -203 97 -64
130 -98 130 -135 0 -46 -49 -108 -107 -136 -41 -21 -63 -24 -153 -24 -94 0
-111 3 -160 27 -65 32 -180 123 -180 142 0 15 30 26 72 26 14 0 70 -21 123
-47 79 -38 108 -47 152 -47 43 -1 58 3 69 18 22 30 2 52 -122 133 -131 87
-180 131 -205 187 -24 53 -24 102 2 170 41 112 173 251 258 275 48 13 113 4
178 -25z m999 -5 c82 -25 140 -53 147 -71 2 -8 -13 -70 -34 -138 -22 -69 -64
-215 -95 -325 -100 -359 -85 -320 -127 -318 -20 1 -50 9 -67 18 -24 13 -30 22
-30 50 0 37 52 298 76 383 15 52 14 82 -4 82 -10 0 -126 -207 -206 -367 -31
-62 -60 -113 -64 -113 -5 0 -31 7 -59 15 -39 12 -53 21 -62 43 -14 36 -45 173
-67 300 -11 66 -22 102 -30 102 -7 0 -15 -4 -18 -8 -6 -10 -74 -422 -78 -472
-4 -45 -28 -49 -97 -19 l-51 21 0 73 c0 81 22 307 44 460 8 55 20 136 27 180
16 114 20 119 84 111 75 -9 179 -43 199 -65 13 -14 26 -73 47 -208 16 -103 29
-191 29 -195 0 -5 7 -8 15 -8 9 0 41 51 81 133 86 171 162 306 187 335 26 28
64 28 153 1z m-1093 -263 c-17 -85 -17 -88 2 -124 28 -51 142 -111 180 -94 29
13 30 10 19 -97 l-7 -62 -41 39 c-23 22 -73 60 -113 86 -40 25 -90 62 -113 82
-35 31 -40 42 -40 78 0 29 9 56 28 87 28 43 90 104 99 96 2 -3 -4 -44 -14 -91z"/>
</g>
</svg>
